<?xml version="1.0" encoding="UTF-8"?><svg id="Calque_1" xmlns="http://www.w3.org/2000/svg" xmlns:xlink="http://www.w3.org/1999/xlink" viewBox="0 0 58.81 70.38"><defs><clipPath id="clippath"><path d="M39.93,25.1c1.57-7.32-7.49-9-9.06-1.32-.62,3.05,.82,6.4,3.76,6.45,2.69,.04,4.75-2.62,5.29-5.12m-21.24-.3c1.01,7.23,10.14,7.35,9.19-.51-.31-2.57-2.62-5.44-5.08-5.53-3.07-.11-4.54,2.91-4.11,6.05Zm-7.37,8.78c1.38,5.25,10.62,6.3,8.97-.5-1.33-5.52-10.7-6.05-8.97,.5Zm35.82,.61c2.87-6.03-6.01-7.37-8.53-1.77-2.69,5.97,5.74,7.64,8.53,1.77Zm-23.07,21.45c-3.34,1.14-6.86,.86-10.3-1.01-1.62-.88-2.89-1.89-4.02-3.03-1.09-1.11-2.03-2.34-3.02-3.72-2.09-2.89-3.83-5.94-5.02-9.16C.52,35.45-.12,32,.02,28.32c.13-3.66,.94-7.3,2.42-10.7,1.43-3.29,3.48-6.36,6.14-9.02C14.31,2.86,21.86,0,29.41,0s15.1,2.86,20.82,8.59c2.67,2.67,4.72,5.74,6.15,9.03,1.48,3.41,2.29,7.05,2.42,10.7,.54,14.73-11.22,25.65-21.86,35.52-2.19,2.04-4.34,4.03-6.37,6.06-.64,.64-1.68,.64-2.32,0-2.03-2.03-4.17-4.02-6.36-6.05l-2.78-2.59c-.66-.62-.69-1.66-.07-2.31,.62-.66,1.66-.69,2.32-.07l2.77,2.58c1.83,1.7,3.63,3.37,5.29,4.99,1.66-1.62,3.46-3.29,5.3-4.99,10.12-9.39,21.31-19.77,20.82-33.01-.12-3.25-.84-6.48-2.15-9.51-1.26-2.91-3.08-5.63-5.46-8.01-5.08-5.09-11.79-7.63-18.5-7.63s-13.42,2.54-18.5,7.63c-2.38,2.38-4.2,5.1-5.46,8.01-1.32,3.03-2.03,6.26-2.15,9.51-.12,3.22,.45,6.26,1.51,9.15,1.08,2.93,2.68,5.72,4.6,8.37,.9,1.25,1.75,2.37,2.7,3.34,.92,.94,1.94,1.75,3.25,2.46,4.93,2.69,9.58,.88,13.13-3.01,0,0-1.93,1.07-2.72,1.37-.37-.51-.72-1.12-1.05-1.8-2.51-5.13-5.9-15.24,3.32-15.88,10.55,.47,10.53,6.91,7.58,12.27-2.32,4.21-7.2,9.47-11.52,10.94Z" style="clip-rule:evenodd; fill:#fff;"/></clipPath></defs><g><path d="M39.93,25.1c1.57-7.32-7.49-9-9.06-1.32-.62,3.05,.82,6.4,3.76,6.45,2.69,.04,4.75-2.62,5.29-5.12m-21.24-.3c1.01,7.23,10.14,7.35,9.19-.51-.31-2.57-2.62-5.44-5.08-5.53-3.07-.11-4.54,2.91-4.11,6.05Zm-7.37,8.78c1.38,5.25,10.62,6.3,8.97-.5-1.33-5.52-10.7-6.05-8.97,.5Zm35.82,.61c2.87-6.03-6.01-7.37-8.53-1.77-2.69,5.97,5.74,7.64,8.53,1.77Zm-23.07,21.45c-3.34,1.14-6.86,.86-10.3-1.01-1.62-.88-2.89-1.89-4.02-3.03-1.09-1.11-2.03-2.34-3.02-3.72-2.09-2.89-3.83-5.94-5.02-9.16C.52,35.45-.12,32,.02,28.32c.13-3.66,.94-7.3,2.42-10.7,1.43-3.29,3.48-6.36,6.14-9.02C14.31,2.86,21.86,0,29.41,0s15.1,2.86,20.82,8.59c2.67,2.67,4.72,5.74,6.15,9.03,1.48,3.41,2.29,7.05,2.42,10.7,.54,14.73-11.22,25.65-21.86,35.52-2.19,2.04-4.34,4.03-6.37,6.06-.64,.64-1.68,.64-2.32,0-2.03-2.03-4.17-4.02-6.36-6.05l-2.78-2.59c-.66-.62-.69-1.66-.07-2.31,.62-.66,1.66-.69,2.32-.07l2.77,2.58c1.83,1.7,3.63,3.37,5.29,4.99,1.66-1.62,3.46-3.29,5.3-4.99,10.12-9.39,21.31-19.77,20.82-33.01-.12-3.25-.84-6.48-2.15-9.51-1.26-2.91-3.08-5.63-5.46-8.01-5.08-5.09-11.79-7.63-18.5-7.63s-13.42,2.54-18.5,7.63c-2.38,2.38-4.2,5.1-5.46,8.01-1.32,3.03-2.03,6.26-2.15,9.51-.12,3.22,.45,6.26,1.51,9.15,1.08,2.93,2.68,5.72,4.6,8.37,.9,1.25,1.75,2.37,2.7,3.34,.92,.94,1.94,1.75,3.25,2.46,4.93,2.69,9.58,.88,13.13-3.01,0,0-1.93,1.07-2.72,1.37-.37-.51-.72-1.12-1.05-1.8-2.51-5.13-5.9-15.24,3.32-15.88,10.55,.47,10.53,6.91,7.58,12.27-2.32,4.21-7.2,9.47-11.52,10.94Z" style="fill:#fff; fill-rule:evenodd;"/><g style="clip-path:url(#clippath);"><rect x="-.12" width="59.46" height="70.54" style="fill:#fff;"/></g></g><g><path d="M27.43,59.98c-.1-.1-.15-.23-.14-.38,0-.15,.07-.28,.19-.4s.25-.17,.4-.18c.15,0,.28,.04,.38,.15l3.22,3.29c.1,.1,.15,.23,.14,.39,0,.15-.07,.28-.19,.4-.11,.11-.25,.17-.4,.18-.16,0-.28-.04-.38-.14l-3.22-3.29Z" style="fill:#fff;"/><path d="M29.68,58.51c-.12,.11-.25,.17-.4,.18-.15,0-.28-.04-.38-.15-.1-.1-.15-.23-.14-.39,.01-.15,.07-.29,.19-.4l1.84-1.8c.15-.15,.33-.25,.53-.3,.2-.05,.39-.04,.58,.02,.18,.06,.33,.17,.44,.33,.11,.15,.17,.33,.18,.53l.11,4.06,1.81-1.77c.12-.11,.25-.17,.41-.18,.15,0,.28,.04,.38,.15,.1,.1,.15,.23,.14,.38,0,.15-.07,.29-.19,.4l-1.93,1.89c-.15,.15-.33,.25-.53,.3-.2,.05-.39,.04-.58-.03-.18-.06-.33-.17-.44-.33-.11-.15-.17-.33-.18-.53l-.11-4.06-1.72,1.68Z" style="fill:#fff;"/><path d="M37.6,56.46c.1,.1,.15,.23,.14,.38-.01,.15-.07,.29-.19,.4-.12,.11-.25,.17-.4,.18-.15,0-.28-.04-.38-.14l-.7-.72c-.25,.09-.54,.09-.86,.01-.26-.06-.63-.23-1.13-.49l-1.6-.85c-.13-.07-.21-.18-.24-.32-.03-.15,0-.29,.08-.42,.08-.14,.2-.23,.35-.28,.15-.05,.29-.04,.42,.03l1.6,.85c.43,.23,.73,.36,.9,.41,.13,.03,.22,.03,.26,0,.1-.09,0-.44-.31-1.04-.02-.03-.03-.06-.04-.07,0,0-.02-.03-.03-.05l-.82-1.61c-.06-.13-.07-.27-.02-.42,.05-.15,.15-.26,.29-.34,.14-.08,.28-.1,.43-.07,.14,.04,.25,.12,.32,.25l.81,1.62c.05,.1,.08,.14,.06,.12,.21,.41,.34,.72,.4,.93,.1,.36,.1,.68-.01,.96l.7,.71Z" style="fill:#fff;"/><path d="M40.08,54.01c.1,.1,.15,.23,.13,.39-.01,.15-.08,.28-.19,.39-.12,.11-.25,.17-.41,.18-.15,0-.28-.04-.38-.15l-3.18-3.33c-.1-.1-.15-.23-.13-.39,.01-.15,.07-.29,.19-.4l.63-.61c.56-.54,1.23-.8,2.01-.78,.75,.02,1.39,.29,1.9,.83l.13,.13c.49,.51,.76,1.09,.82,1.72,.05,.67-.14,1.27-.58,1.82-.14,.16-.29,.25-.44,.28-.15,.02-.29,0-.4-.1-.11-.09-.18-.21-.18-.36,0-.14,.05-.27,.16-.4,.25-.34,.37-.69,.34-1.05-.03-.39-.22-.76-.55-1.11l-.13-.13c-.33-.34-.73-.52-1.2-.53-.45-.01-.83,.13-1.14,.43l-.21,.2,2.81,2.95Z" style="fill:#fff;"/><path d="M43.23,44.94c.76-.01,1.43,.26,2.01,.82h0c.54,.51,.84,1.12,.9,1.82,.07,.81-.2,1.54-.82,2.2h0c-.62,.66-1.34,.97-2.16,.94-.7-.03-1.32-.3-1.86-.81-.59-.56-.89-1.21-.91-1.97-.02-.76,.25-1.44,.83-2.05,.58-.61,1.25-.92,2-.94Zm-1.24,1.66c-.34,.36-.5,.75-.49,1.17,.01,.48,.22,.9,.61,1.27,.36,.35,.77,.53,1.22,.55,.46,.02,.88-.16,1.24-.54h0c.36-.38,.52-.8,.48-1.26-.04-.45-.24-.84-.6-1.18h0c-.39-.38-.83-.56-1.31-.55-.42,0-.8,.19-1.14,.54Z" style="fill:#fff;"/><path d="M45.28,40.72c.09-.13,.21-.22,.36-.26,.15-.04,.28-.01,.4,.07,.12,.08,.19,.2,.22,.35,.02,.15-.02,.29-.11,.43l-.43,.63c-.24,.36-.32,.76-.24,1.2,.09,.46,.33,.83,.72,1.09l.15,.1c.39,.27,.82,.35,1.28,.26,.44-.08,.78-.31,1.02-.67l.23-.34-1.47-.99c-.12-.08-.19-.2-.21-.35-.02-.15,.01-.29,.11-.43,.09-.13,.21-.22,.36-.26,.15-.03,.28-.01,.4,.07l1.91,1.29c.12,.08,.19,.2,.21,.35,.02,.15-.01,.29-.11,.43l-.56,.82c-.44,.65-1.04,1.04-1.8,1.19-.74,.14-1.42,0-2.03-.41l-.15-.1c-.62-.42-.99-.99-1.13-1.73-.15-.76,0-1.47,.43-2.11l.43-.63Z" style="fill:#fff;"/></g></svg>