<?xml version="1.0" encoding="UTF-8"?><svg id="Calque_2" xmlns="http://www.w3.org/2000/svg" viewBox="0 0 283.46 200.41"><defs><style>.cls-1{fill:#959594;}.cls-2{fill:#b4b4b4;}.cls-3{fill:#747373;}.cls-4{fill:#a4a4a4;}.cls-5{fill:#d7d7d6;}.cls-6{fill:#c1c1c0;}.cls-7{fill:#0f8c74;}.cls-8{fill:#afafae;}.cls-9{fill:#e8e8e8;}.cls-10{fill:#a0a09f;}</style></defs><g id="Calque_1-2"><g><path class="cls-7" d="M32.2,35.13c.99,.68,2.21,.72,3.27,1.21,1.56,.72,3.32,.59,4.93,1.17,.71,.26,1.37,.6,2.02,.96,1.66,.94,3.73,1.15,5,2.78,.48,.61,.97,1.34,1.48,1.77,1.29,1.11,1.09,2.95,2.32,4.02,.31,.27,.46,.79,.58,1.23,.66,2.4,1.89,4.55,3.41,6.45,1.52,1.89,2.76,3.95,4.21,5.88,.83,1.1,2.17,1.61,3.4,2.18,2.7,1.26,5.43,2.4,7.82,4.28,3.1,2.43,6.4,4.56,9.99,6.3,2.5,1.21,4.96,2.4,7.67,3.05,.5,.12,.93,.21,1.37-.16,.19-.16,.49-.28,.72-.25,1.84,.24,3.78-.32,5.54,.65,.14,.08,.37,.08,.44,.19,.7,1.18,1.99,.98,3.05,1.32,.18,.06,.4,.12,.52,.25,1.08,1.11,2.47,1.81,3.65,2.77,.84,.68,1.46,1.71,1.98,2.69,.44,.83,1.23,1.46,1.36,2.46,.04,.26,.31,.33,.53,.37,1.58,.33,3.02,1.14,4.55,1.52,2.13,.54,4.11,1.52,6.29,1.91,1.16,.21,2.24,.96,3.39,1.08,1.87,.19,3.36,1.28,5.08,1.78,2.04,.59,4,1.45,6.1,1.87,1.42,.29,2.76,.91,4.15,1.34,1.37,.43,2.71,.98,4.12,1.28,.73,.16,1.32,.65,2.08,.83,1.54,.36,2.95,1.15,4.5,1.57,1.35,.36,2.66,.92,3.98,1.4,1.29,.47,2.72,.77,4.09,1.13,1.02,.26,2.17,.31,3.04,1.16,.38,.37,1.05,.53,1.62,.62,1.57,.26,2.99,.92,4.45,1.52,1.24,.51,2.56,.82,3.84,1.22,2.55,.81,5.11,1.62,7.65,2.46,.32,.11,.62,.2,.94,.19,.49,0,.83,.02,1.21,.53,.32,.44,1.15,.58,1.74,.7,1.31,.26,2.57,.69,3.82,1.1,1.32,.44,2.66,.7,3.99,1.04,.58,.15,1.17,.55,1.79,.78,2.13,.82,4.29,1.53,6.49,2.16,1.45,.42,2.83,1.09,4.29,1.42,1.54,.35,2.97,1.01,4.48,1.42,1.41,.39,2.79,.94,4.18,1.41,1.25,.42,2.56,.71,3.81,1.14,1.48,.51,2.96,1.01,4.44,1.52,1.55,.53,3.09,1.05,4.7,1.4,.8,.17,1.56,.58,2.39,.77,.97,.22,1.93,.52,2.93,.66,.19,.03,.47,.05,.53,.17,.4,.78,1.14,.65,1.8,.7,.79,.06,1.48,.13,1.93,1,.36,.7,1.32,.75,2,1.03,.61,.25,1.32,.33,1.96,.57,.95,.35,1.89,.28,2.88,.05,3.3-.78,6.67-.85,10.03-.95,1.51-.04,2.96-.25,4.4-.79,1.41-.53,2.96-.45,4.44-.69,1.74-.27,3.47-.64,5.2-.97,1.34-.25,2.62-.19,3.94,.32,1.87,.73,3.79,1.35,5.52,2.39,1.89,1.13,3.52,2.53,4.42,4.6,.54,1.24,.64,2.51,.05,3.78-.3,.65-.09,1.23,.33,1.72,.59,.68,1.23,1.33,1.84,1.99,.02,.02,.03,.06,.05,.08,.55,.73,1.89,.06,2.19,1.2,.24,.92,.95,1.45,1.56,2.06,.22,.22,.51,.37,.77,.55v2.16c-1.48,1.76-2.99,3.48-5.56,3.54-.14,.01-.29-.02-.43,0,.09,.04,.19,.05,.28,.1,1.15,.94,1.54,3.58,.71,4.74-.28,.38-.69,.48-1.12,.5-1.29,.03-2.44-.44-3.48-1.13-1.06-.7-2.59-.89-3.65-.16-.8,.55-1.37,.38-2.12-.09-1.35-.85-2.83-1.48-4.11-2.45-.16-.12-.32-.22-.48-.35-.97-.79-1.21-.77-2.06,.14-.4,.43-.68,.96-.99,1.45-.3,.29-.27,.7-.38,1.06-1.06,1.38-2.25,2.62-3.92,3.26-.65,.25-1.33,.26-2.03,.14-1.33-.23-1.61-.03-2.14,1.26-.51,1.24-.84,2.57-1.5,3.72-.76,1.33-1.55,2.72-3.01,3.47-.37,.19-.45,.39-.34,.78,.61,2.13,1.66,3.98,3.08,5.7,1.49,1.81,3.08,3.55,4.59,5.35,1.43,1.7,2.32,3.78,3.94,5.34,1.96,1.9,4.1,3.43,6.84,3.94,.62,.12,1.18,.37,1.76,.6,1.23,.48,1.61,1.35,1.06,2.56-.55,1.21-1.42,2.1-2.73,2.5-1.63,.5-3.28,.89-4.97,1.1-.52,.06-.97,.03-1.33-.4-.47-.56-1.12-.82-1.8-.93-.92-.16-1.75-.5-2.55-.95-.74-.42-1.51-.77-2.37-.88-.49-.06-.92-.32-1.3-.66-.78-.7-1.71-1.2-2.57-1.8-.42-.3-.9-.4-1.4-.37-.94,.07-1.67-.21-2.04-1.16-.09-.23-.22-.53-.54-.47-.29,.06-.34,.37-.42,.61-.16,.5-.25,1.02-.42,1.51-.35,1.05-1.09,1.7-2.14,1.97-1.14,.29-1.81-.09-1.98-1.25-.25-1.66-.73-3.23-1.29-4.81-.58-1.66-1.77-2.88-2.73-4.27-.91-1.32-1.75-2.68-2.54-4.07-.56-.99-.75-2.08-.89-3.19-.05-.37,.03-.86-.51-.94-.51-.07-.97-.06-1.45,.34-1.22,1-1.62,2.41-2.11,3.77-.64,1.77-1.51,3.45-1.83,5.35-.22,1.3-.38,2.65-.92,3.89-.22,.52-.06,1.11,.13,1.64,.32,.9,.58,1.81,.79,2.73,.18,.79,.63,1.17,1.4,1.27,.68,.09,1.38,.09,2.03,.31,1.82,.59,3.46,1.41,4.12,3.41,.44,1.34,.07,2.13-1.24,2.62-1.6,.6-3.2,.74-4.9,.3-1.1-.28-2.26-.37-3.4-.35-.92,.02-1.82-.17-2.73-.25-.33-.03-.69-.15-.84-.44-.5-.99-1.31-1.78-1.73-2.83-.54-1.32-1.24-2.58-1.5-4.01-.13-.7-.58-.81-1.16-.42-.66,.43-1.39,.51-2.16,.5-.69,0-1.33-.04-1.55-.86-.03-.12-.14-.23-.25-.3-1.67-1.09-1.37-2.65-.97-4.2,.42-1.64,1-3.26,.91-4.99-.06-1.08-.33-1.22-1.27-.7-.31,.17-.59,.42-.93,.54-.94,.31-1.46-.04-1.5-1.02-.03-.85,0-1.7-.01-2.55,0-.78-.29-1.32-1.11-1.49-.39-.08-.72-.3-1-.59-1.35-1.42-2.97-2.44-4.77-3.19-.67-.28-1.3-.63-1.8-1.16-.47-.49-1.09-.56-1.71-.65-.6-.09-1.1-.31-1.56-.74-.73-.68-1.71-.76-2.65-.85-.68-.06-1.16-.17-1.39-.94-.2-.68-1.05-.83-1.48-1.37-.04-.05-.14-.08-.18-.05-.62,.55-1.57,.4-2.16,1.05-1.32,1.45-2.77,2.78-3.58,4.62-.12,.27-.37,.45-.61,.63-1.56,1.15-2.94,2.46-3.85,4.2-.21,.22-.32,.48-.34,.78-.5,1.69-.49,3.41-.31,5.14,.03,.26,.08,.53,.23,.74,1.41,2.04,3.01,3.87,5.38,4.85,.33,.14,.68,.28,1.04,.29,1.58,.02,2.99,.51,4.35,1.29,1.05,.6,1.79,1.43,2.17,2.53,.37,1.07-.13,1.75-1.25,1.94-.78,.13-1.55,.2-2.34,.19-3.27-.04-6.53,.31-9.8,.2-1.64-.06-1.7-.06-2.15-1.64-.13-.47-.37-.83-.8-1.07-1.55-.85-2.79-2.03-3.78-3.49-.63-.92-1.42-1.72-2.03-2.63-1.65-2.45-2.85-5.08-1.91-8.17,.17-.56,.17-1.16,.28-1.74,.14-.79-.03-1.42-.85-1.76-.38-.16-.63-.48-.74-.87-.25-.84-.85-.89-1.56-.74-.35,.08-.73,.17-1.01,.37-1.46,1.09-3.24,1.32-4.89,1.91-3.16,1.15-5.78,2.99-7.79,5.69-1.68,2.26-2.29,4.8-1.99,7.58,.04,.41,.24,.74,.51,1.03,.44,.48,.82,1.03,1.3,1.47,1.12,1.03,1.36,2.34,1.38,3.75,.02,1.18-.35,1.59-1.49,1.8-.39,.07-.78,.09-1.17,.06-1.67-.09-3.33,.19-4.99,.18-1.67,0-3.71-1.87-3.94-3.52,.01-.45,.02-.91-.28-1.3-.35-1.53-.09-3.01,.16-4.54,.48-2.99,1.26-5.96,1.09-9.03-.05-1,.03-1.97,.88-2.69,.07-.06,.15-.15,.16-.24,.31-2.11,2.02-3.39,3.02-5.08,.07-.11,0,.04,.05-.08,.57-1.53,1.82-2.33,3.18-3.03,.38-.19,.74-.41,1.06-.71,.39-.37,.55-.78,.32-1.32-.52-1.22-.57-2.47-.14-3.74,.08-.25,.1-.51,.1-.78-.05-4.18,.34-8.36,.21-12.55-.04-1.14-.02-1.17-1.13-1.24-2.38-.15-4.72-.7-7.11-.8-.33-.01-.64-.12-.93-.28-.26-.14-.52-.34-.81-.35-1.45-.04-2.64-.66-3.88-1.38-1.24-.73-2.43-1.53-3.67-2.25-.52-.3-1-.59-1.61-.65-1.18-.13-2.24-.47-3.26-1.19-.81-.57-1.92-.77-2.91-1.07-1.23-.38-2.36-.97-3.47-1.59-.85-.47-1.24-1.35-1.39-2.27-.13-.83-.47-1.47-1.1-2-.35-.3-.59-.7-.87-1.06-.74-.96-1.5-1.85-2.75-2.26-1.16-.38-2.3-2.44-2.25-3.68,.02-.36,.14-.63,.45-.81,1.26-.7,2.49-1.39,4.04-1.27,1.92,.14,3.85-.11,5.78,.19,1.63,.25,3.16,.75,4.62,1.52,3.45,1.81,7,3.39,10.65,4.75,.83,.31,1.65,.68,2.38,1.16,2.03,1.33,4.35,1.62,6.65,1.79,1.98,.14,3.98,.04,5.94,.46,1.86,.4,3.7-.04,5.56-.2,2.52-.22,4.91-1.14,7.4-1.42,2.07-.23,4-.91,6-1.37,2.97-.69,5.99-1.1,9.02-1.28,1.37-.08,2.77,.36,4.18,.34,1.57-.02,3.13-.15,4.7-.21,4.17-.16,8.28,.38,12.36,1.22,2.59,.54,5.19,1.07,7.82,1.42,.42,.06,.84,.09,1.27,.09,3.33-.02,6.67-.02,9.99,.36,1.36,.16,2.72,0,4.09-.37-4.26-2.02-8.7-3.4-13.1-4.89-2.25-.76-4.55-1.42-6.75-2.36-1.61-.69-3.37-1.01-5.04-1.61-3.23-1.16-6.48-2.24-9.73-3.34-3.03-1.03-6.07-2.01-9.12-2.97-1.77-.56-3.55-1.1-5.29-1.71-1.17-.41-2.48-.46-3.5-1.02-1.37-.74-2.85-1.12-4.21-1.79-1.3-.64-2.71-.96-4.07-1.41-3.68-1.22-7.38-2.41-11.06-3.63-2.24-.74-4.44-1.52-6.78-1.88-.68-.1-1.2-.62-1.83-.9-2.63-1.19-5.49-1.73-8.1-2.97-.71-.34-1.57-.51-2.38-.54-1.1-.03-1.99-.52-2.91-1.04-1.12-.63-2.39-.86-3.59-1.28-3.51-1.23-7.1-2.24-10.63-3.41-3.74-1.24-7.4-2.77-11.28-3.59-.52-.11-.94-.46-1.41-.69-.49-.24-.9-.27-1.01,.4-.44,2.72-3.62,4.59-6.45,4.51-1.75-.05-3.37-.28-4.89-1.13-.26-.14-.54-.22-.84-.27-.16-.03-.32-.05-.48-.1-.08-.03-2.09-2.21-2.12-2.3-.41-1.35-.77-1.66-2.18-1.74-1.66-.1-3.05-.85-4.4-1.73-.5-.33-.79-.78-.69-1.4,.06-.43-.1-.72-.43-1.01-2.12-1.86-4.64-2.86-7.3-3.64-4.01-1.18-8.05-2.35-11.83-4.15-2.52-1.2-5.18-1.97-7.71-3.1-2-.9-3.71-2.17-5.45-3.65-.03,1.3,.17,2.46,.63,3.56,.39,.92,.44,1.83,.32,2.78-.22,1.87-.16,3.67,.79,5.42,.55,1.02,.49,2.29,.61,3.45,.2,1.78,.23,3.58,.62,5.35,.01,.37,0,.74,0,1.12-.05,.44,.09,.82,.3,1.19,.35,2.36,1.46,4.45,2.25,6.66,.39,1.1,.85,2.2,.85,3.41,0,.64,.62,1.1,.65,1.72,.1,2.12,.68,4.19,.68,6.32,0,3.27,.11,6.55-.04,9.81-.1,2.14,.07,4.32-.48,6.43-.12,.48-.07,.98-.07,1.47,0,.56,.05,1.15-.18,1.65-.6,1.33-.57,2.81-1.11,4.15-.36,.89-.43,1.8-.34,2.78,.13,1.39,.14,2.8-.25,4.19-.21,.77-.46,1.55-.17,2.4,.17,.49-.08,.97-.43,1.35-.43,.47-.56,.97-.39,1.62,.2,.8,.08,1.59-.16,2.4-.31,1.03-.35,2.13-.29,3.2,.23,4.34-.09,8.71,.24,13.03,.48,6.15,.21,12.29,.32,18.43,.02,.85,.04,1.71,.29,2.53,.27,.9,.69,1.05,1.5,.63,1.06-.55,2.09-.53,3.03,.23,.58,.47,1.15,.56,1.8,.18,.25-.15,.54-.23,.81-.34,1.95-.77,2.9-.26,3.31,1.77,.05,.33,0,.71,.44,.85,.57,.36,.77,.93,.33,1.41-.58,.62-.08,.76,.3,.95,1.39,.69,2.9,1.03,4.42,1.25,1.21,.17,2.37,.48,3.52,.87,2.01,.68,2.37,2.31,1.31,4.13-.97,1.68-2.34,2-4.02,1.97-3.63-.05-7.25,.17-10.88,.09-.57,0-1.13,0-1.7,0-.46,0-.91,0-1.37,0-.45,0-.9,0-1.35,0-.33,0-.65,0-.98,0-.41,.05-.84-.11-1.24,.1h-1.57c-.58-.29-1.22-.29-1.82-.27-2.23,.05-4.44-.31-6.66-.22-1.16,.05-2.27-.22-3.38-.51-.73-.19-1.16-.63-1.15-1.38,.04-2.41-.23-4.83,.17-7.24,.14-.82-.16-1.7,.33-2.49,.06-.1-.04-.25-.13-.35-.44-.48-.4-1.08-.4-1.67,0-1.44-.01-2.88,0-4.32,.01-1.05-.14-2.03-.52-3.05-.44-1.17-.55-2.47-.85-3.71-.38-1.59-.23-3.3-.68-4.83-.75-2.55-.24-5.23-1.03-7.75-.18-.59-.04-1.24-.08-1.86-.03-.46-.33-.81-.64-.34-.77,1.19-2.1,1.6-3.1,2.46-.57,.49-.98,1.14-1.43,1.74-.21,.22-.38,.48-.49,.77-.87,.93-1.78,1.81-2.81,2.57-.58,.43-.95,1.01-1.32,1.65-1.02,1.81-2.08,3.62-3.27,5.33-.31,.45-.78,.57-1.28,.59-.85,.03-1.7,.02-2.55,0-.61,0-1.09,.18-1.42,.7-.61,.96-1.21,1.93-1.85,2.88-.28,.41-.23,.65,.27,.9,1.03,.5,1.11,1.72,.21,2.45-.2,.17-.49,.29-.51,.56-.1,1.64-1.16,2.83-2.01,4.08-1.1,1.63-1.14,3.37-.95,5.17,.22,2,.28,3.96-.6,5.86-.27,.57-.57,.92-1.2,.96-.59,.04-1.16,.22-1.75,.18-.67-.04-1.33-.16-1.82-.64-1.52-1.48-3.36-2.61-4.67-4.31-1.62-2.09-2.82-4.31-2.95-7.08-.16-3.26-.19-6.52-.46-9.78-.21-2.59-.54-5.2-.15-7.82,.42-2.78,1.35-2.99,4.06-3.43,1.37-.22,2.81,.07,4.2-.21,.32-.07,.65-.09,.88-.36,1.72-1.98,3.66-3.74,5.44-5.65,1.98-2.13,4.24-4,6.04-6.28,1.71-2.16,3.96-3.8,5.62-5.99,.55-.72,1.4-1.17,2.06-1.8,.52-.5,1.11-.92,1.35-1.64,.08-.25,.29-.47,.53-.55,1.71-.58,2.79-2.12,4.4-2.87,.98-.46,.93-.66,.48-1.67-.84-1.85-1.89-3.54-3.17-5.13-1.36-1.69-2.68-3.41-3.79-5.28-.29-.49-.69-.87-1.06-1.28-.51-.57-.91-1.19-1.12-1.92-.1-.28-.29-.5-.54-.68-1.5-2.02-2.87-4.13-4.37-6.14-1.37-1.83-2.71-3.67-4.09-5.49-2.75-3.62-4.38-7.6-4.33-12.2,.03-2.65,.03-5.3,0-7.94-.03-2.04,.19-4.07,.72-6.01,.87-3.18,1.41-6.41,1.95-9.65,.12-.27,.33-.5,.3-.83,.01-.36,.08-.71,.17-1.06,.38-1.6,.28-3.1-.75-4.47-.25-.33-.42-.74-.46-1.17,.06,.85-.09,1.67-.34,2.48-.31,.39-.26,.85-.26,1.3,0,.49,0,.97,0,1.46,0,.34,0,.67,0,1.01-.04,.94-.28,1.86-.48,2.77-.4,1.78-.56,3.58-.71,5.39-.03,.33-.11,.64-.25,.93-.15,.27-.36,.52-.32,.86-.11,1.21-.48,2.36-.76,3.54-.46,1.99-.99,3.95-1.3,5.99-.33,2.09-.19,4.16-.29,6.23-.04,.75,.22,1.39,.61,2.02,1.98,3.26,3.21,6.76,3.28,10.6,.02,1.2-.2,2.4-.36,3.6-.11,.78-.93,.87-1.17,1.47-.03,.37,.01,.74-.08,1.1-.67,.93-2.88,1.57-3.99,1.05-1.13-.53-2.24-.96-3.53-1.02-1.04-.05-1.79-.89-2.52-1.59-.43-.41-.83-.86-1.35-1.12C.64,117.54,.11,116.83,0,115.81v-1.18C.12,114.5,.12,114.37,0,114.24v-2.94c.31-.63,.15-1.37,.48-1.99,.2-.26,.24-.57,.28-.89,.53-2.17,.75-4.35,.71-6.59-.13-7.11,.33-14.21,.18-21.32-.02-.83,.18-1.62,.46-2.38,.18-.34,.41-.66,.37-1.07,.65-3.24,.45-6.5,.09-9.75-.33-3.05-.96-6.05-1.35-9.09-.33-2.5-.19-5.02,.15-7.52,.24-1.78,.34-3.58,.58-5.34,.27-2.03,.6-4.17,2.29-5.68,1.22-1.09,1.2-2.14,1.81-2.76,3.3-3.38,8.16-.8,10.37-3.65,1.12-1.45,.9-3.45,.66-5.67-.21-1.92-.82-3.41-1.91-6.06-.82-1.99-1.08-2.26-1.78-4.02-.81-2.06-1.28-3.82-1.56-5.01-.22-1.01-.5-3.01,.35-5.18,.57-1.46,1.45-2.46,1.87-2.95,.64-.73,1.38-1.37,2.22-1.92,.95-.63,1.91-1.25,2.98-1.68,1.25-.5,2.56-.44,3.85-.56,.35-.03,.72,.05,1.03-.2h2.75c.39,.32,.86,.45,1.33,.45,1.64,.03,2.95,1.11,4.48,1.41,1.45,.29,2.24,1.52,3.42,2.18,.56,.31,1.08,.86,1.59,1.31,.47,.41,.93,.99,.78,1.77-.17,.88,.56,1.47,.77,2.23,.63,2.27,1.13,4.55,1.19,6.91,.22,.24,.12,.6,.33,.83,.23,3.68-.37,7.26-1.56,10.72-.47,1.38-1.54,2.3-3.17,2.24-.72-.03-1.45,.07-2.15-.05-1.03-.17-1.45,.3-1.61,1.2-.03,.19-.08,.38-.11,.58-.29,1.11-.32,2.23,.02,3.34Z"/><path class="cls-9" d="M62.04,200.23c0,.06,0,.12,0,.18h-1.77c-.06-.04-.09-.08-.06-.11,.02-.04,.04-.05,.07-.05,.59,0,1.18,0,1.77,0Z"/><path class="cls-6" d="M57.53,200.24c.46,0,.91,0,1.37,0,.06,.04,.08,.08,.06,.11-.02,.04-.04,.05-.06,.05h-1.37c-.07-.04-.09-.08-.06-.11,.02-.03,.05-.05,.07-.05Z"/><path class="cls-5" d="M58.89,200.41c0-.06,0-.11,0-.17,.46,0,.92,0,1.37,0,0,.06,0,.11,0,.17h-1.37Z"/><path class="cls-3" d="M55.36,200.41c.36-.31,.79-.19,1.19-.16,.05,.04,.06,.08,.04,.12-.02,.03-.04,.05-.06,.05h-1.18Z"/><path class="cls-10" d="M56.54,200.41c0-.06,0-.11,.02-.16,.32,0,.65,0,.97,0,0,.06-.01,.11,0,.17h-.98Z"/><path class="cls-1" d="M0,114.24c.25,.13,.29,.26,0,.39v-.39Z"/><path class="cls-4" d="M40.8,17.11c-.53-.11-.36-.5-.33-.83,.46,.14,.37,.5,.33,.83Z"/><path class="cls-2" d="M12.79,119.52c.59,.41,.56,.81-.01,1.21,0-.4,0-.81,.01-1.21Z"/><path class="cls-8" d="M26.92,125.41c-.33-.03-.45-.23-.44-.54,.34,.02,.46,.22,.44,.54Z"/></g></g></svg>